<?xml version="1.0" encoding="utf-8"?>
<!-- Generated by IcoMoon.io -->
<!DOCTYPE svg PUBLIC "-//W3C//DTD SVG 1.1//EN" "http://www.w3.org/Graphics/SVG/1.1/DTD/svg11.dtd">
<svg version="1.1" xmlns="http://www.w3.org/2000/svg" xmlns:xlink="http://www.w3.org/1999/xlink" width="28" height="28" viewBox="0 0 28 28">
<path fill="#444444" d="M12 26h14v-10h-6.5q-0.625 0-1.062-0.438t-0.438-1.062v-6.5h-6v18zM16 3.5v-1q0-0.203-0.148-0.352t-0.352-0.148h-11q-0.203 0-0.352 0.148t-0.148 0.352v1q0 0.203 0.148 0.352t0.352 0.148h11q0.203 0 0.352-0.148t0.148-0.352zM20 14h4.672l-4.672-4.672v4.672zM28 16v10.5q0 0.625-0.438 1.062t-1.062 0.438h-15q-0.625 0-1.062-0.438t-0.438-1.062v-2.5h-8.5q-0.625 0-1.062-0.438t-0.438-1.062v-21q0-0.625 0.438-1.062t1.062-0.438h17q0.625 0 1.062 0.438t0.438 1.062v5.125q0.328 0.203 0.562 0.437l6.375 6.375q0.438 0.438 0.75 1.188t0.313 1.375z"></path>
</svg>
