<?xml version="1.0" encoding="utf-8"?>
<!-- Generator: Adobe Illustrator 19.2.1, SVG Export Plug-In . SVG Version: 6.00 Build 0)  -->
<svg version="1.1" id="Layer_1" xmlns="http://www.w3.org/2000/svg" xmlns:xlink="http://www.w3.org/1999/xlink" x="0px" y="0px"
	 viewBox="0 0 16 16" style="enable-background:new 0 0 16 16;" xml:space="preserve">
<style type="text/css">
	.st0{fill:#FFFFFF;}
</style>
<path class="st0" d="M12,5V2.5C12,2.2,11.8,2,11.5,2H10H8V1c0-0.5-0.5-1-1-1H5C4.5,0,4,0.5,4,1v1H2H0.5C0.2,2,0,2.2,0,2.5v10
	C0,12.8,0.2,13,0.5,13H6l0,3h10V5L12,5z M5,1h2v1H5V1z M1,12V3h1v1h8V3h1v2L9,5L6,8l0,4H1z M9,6.4V8H7.4L9,6.4z M15,15L15,15H7V9h3
	V6h5V15z"/>
</svg>
