<?xml version="1.0" encoding="utf-8"?>
<!-- Generator: Adobe Illustrator 19.2.0, SVG Export Plug-In . SVG Version: 6.00 Build 0)  -->
<svg version="1.1" id="Layer_1" xmlns="http://www.w3.org/2000/svg" xmlns:xlink="http://www.w3.org/1999/xlink" x="0px" y="0px"
	 viewBox="0 0 522 314.7" style="enable-background:new 0 0 522 314.7;" xml:space="preserve">
<style type="text/css">
	.st0{opacity:0.25;}
	.st1{fill:url(#SVGID_1_);}
	.st2{fill:url(#SVGID_2_);}
	.st3{fill:url(#SVGID_3_);}
	.st4{fill:url(#SVGID_4_);}
	.st5{fill:url(#SVGID_5_);}
	.st6{fill:url(#SVGID_6_);}
	.st7{fill:url(#SVGID_7_);}
	.st8{fill:url(#SVGID_8_);}
</style>
<g class="st0">
	<path d="M40.5,138.1c-1.5,13.5-8.2,33.5-13.4,39.9c-3,3.7-7.8,6.4-12.1,6.9c-4.8,0.5-9-0.1-12.3-3.7c-3.6-4-3.7-12.2,0-23.2
		c3.4-10.1,17.4-28.8,22.1-33.5c2.1-1.9,2-4.9,2.8-12c1.7-15.3,5.7-43.5,2.7-58.5c-5.8,2-4.3,2.6-6.4,3.4c-3,1.1-5.2-0.3-2.4-2.9
		C24.5,51.9,34,49,40.4,43.3c1.2-1.1,3.3-0.6,4.5,0.6c1.1,1.2,1.6,2.9,1.9,4.5c3.3,14.9-0.8,46.1-2,61.3c3.4-1.9,13.3-7.2,14.8-9.1
		c0,0,1-7.2,1.4-10.7c0.6-5.7,1.6-11.4,2.9-17c1.8-7.4,3.5-15.2,10.2-21.1c15.4-13.7,25.8-2,27.6,8.5c1.4,8.3-0.8,15.4-4.5,20.7
		c-4.2,5.9-21.7,17.9-21.7,17.9s-0.2,0.8-0.6,3.1c-2.9,15.3-4.3,31.2-1.4,46.8c0.5,2.5,2.3,12.3,6.4,11.8c2.1-1.4,5.6-3.3,5.3-5.8
		c-0.3-2.5-1.5-4.8-2.4-7.1c-3.8-9.7-2.3-27.7,4.1-35.9c9.9-12.1,21.7-17.9,30.6-10.4c2,1.1,2.5-1.9,4.3-3.4
		c1.8-1.5,3.5-1.3,5.7-1.9c3.4-0.9,3.7-0.9,4.9,1.3c2.2,3.8-0.4,30.6-1,36.8c-0.6,6.5-1.5,14.3,2.1,14.7c2.5,0.3,7.2-12,8.3-17.9
		c0.3-13.4,1.7-31.3,3.4-35.3c1.2-2.8,6.4-3.4,12-2.6s2.1,3.2,1.4,6.6c4.7-6.5,14.5-11.1,21.6-7.4c6.7,3.6,11.7,9.4,11.1,22.8
		c-1.1,23-9.4,35.4-18.9,37.2c-5.4,1-14.7-1.4-16.5-9.3c-0.1,21.3-1.7,41-4.4,63.7c-0.4,3.6-0.9,5.5-2.1,8.8
		c-1.2,3.3-2.4,8.6-5.9,9.1s-7.3-2.4-7-5.9c2-24.9,3.9-49.9,5.4-76.7c-1.3,6.9-3.5,14.4-14,15.6c-5.9-0.3-11.4-2.6-13.7-8
		c-5.8,12.8-17.6,13.5-26.1,7.6c-1.6,4.7-6.4,8-14.3,8.9s-12.6-5.4-15.8-12c-3.2-6.7-1.8-17.6-1.1-25c0.7-7.5,1.4-15,2.1-22.5
		c-12,7-14.3,8.1-15.6,14.3C42.4,126.9,41.5,132.4,40.5,138.1 M167.5,98.7c-2.6-0.4-6.9,5.4-8.3,7.6c-3.1,8.3-3,14.7-3.6,26.5
		c0.2,5.8,3.6,10.6,8.9,10.7s6.4-6.6,6.7-7.7c2.4-8.6,4.6-20.6,2.2-29.2C172.6,103.7,170.6,99.2,167.5,98.7z M113.2,138.4
		c0.2-4,1.8-19.7,1.8-29c-1-4.2-6.2-5.6-9-4.7c-4.7,1.8-7,9.8-7.9,12c-2.1,6.2-1.7,23.6,0.1,29.8c1.1,3.8,3.1,6.3,7,6.1
		C109.1,152.3,112.6,149.7,113.2,138.4z M8,177.4c3.4,0,7.1-5.8,8.2-8.5c3.7-8.9,7.2-28.5,8.6-38c0.1-0.6-11.4,13.7-15.1,20.5
		c-3.6,6.8-7.3,17.8-5.8,23.1C4.5,176.4,4.7,177.4,8,177.4z M76.5,92.9c5.1-3.1,17-10.3,19.7-19.6c3.8-13-1.7-25.7-8.9-16.7
		C81.4,64,76.5,92.9,76.5,92.9z"/>
	<path d="M238.5,78.7c0,0,4.7-9.6,12.7-9.6c14.5,0,13.2,12.3,12.9,18.5c-0.6,10.9-2.2,25.5-1.1,35.7c0.1,1,1,2.8,1.6,3.6
		c2,3.1,7.5,0.8,9.4-2.4c2.3-4,1.3-4.4,2.4-15.3c1.1-10.8,1-15,1.7-23c0.1-3.1,3.1-5.9,5.8-7.4c2.7-1.6,9.7-3.2,10.8-2.2
		c1.2,1,0.5,8,0.5,9.5c-2.8,20.7-5.6,58.4-6.3,69.6c-0.1,1.2-1.5,1.6-2.3,0.8c-3.1-3.2-6.9-5.2-11-5.9c-1.1-0.2-1.9-1.2-1.8-2.4
		c0.3-4.3,0.7-10.3,1-14.7c-1.5,5.1-7.4,8.2-10.5,8.2c-5.7-0.1-9.7,0.5-14.2-7.5c-4.5-7.9-1.2-28.2,0.3-44.2
		C251.6,74.6,243.4,76.5,238.5,78.7z"/>
	<path d="M268.9,225.2c0.1-1.1,0.2-2.2,0.3-3c0.1-0.7,0.6-1.3,1.3-1.5c2.5-0.7,8.4-3.5,11.3-6.1c1.2-1,2.9-0.2,2.9,1.4
		c-1,20.5-3.3,29.9-4.8,45.4c-3.7,37.2-31.6,53.4-49.6,53.4c-16.1,0-29.3-4.4-37.2-14.2c-10.4-12.5-10.4-24.3-9-45.7
		c1.5-21,3.1-43.8,3.6-50c0.1-1,0.7-1.9,1.6-2.4l9.8-4.6c1.7-0.9,3.7,0.4,3.5,2.3c-0.7,8.8-2,28.5-3.2,45.5
		c-0.8,11.1-1.3,19.4-0.8,28.1c0.5,8.7,3.8,14.1,9.7,19.3c9.2,5.6,20.8,7,30.1,3.7C251.6,290,265.7,283.8,268.9,225.2z"/>
	<path d="M223.3,285.2c-0.9,1.1-2.1,0.6-3.5,0.2c-6.5-1.6-9.1-5.5-10.9-11.9c-1.8-6.4-0.3-9.4,0.1-16.1c2.4-34.6,4.8-51,7.2-85.5
		c0.2-2.4,0.4-4.3,0.7-7.1c0.2-2.5,2-4.7,4.5-5.3l7.8-2c2.3-0.6,4.5,1.3,4.4,3.6c-0.3,3.9-0.6,7.3-0.7,8.8
		c-3.5,48.3-5.3,64.4-8.8,112.7C223.9,283.5,223.9,284.5,223.3,285.2z"/>
	<path d="M313.5,180.5c1.6,1.6,3.7,3.7,6.4,6.1c0,0,11-6.2,13.6-18.1c0.7-0.1,1.3,0.6,1.7,1.2c-3.7,13.5-13,19.3-13,19.3
		c2.8,2.7,8.1,8,9.7,10.4c3.3,5.1,5.2,8.3,6.7,14.3c2.5,10-0.7,22.5-8.7,28.9c-8,6.4-20.9,6.7-29.7,1.4s-13.7-16.6-11.2-26.6
		c1.8-7.2,7.1-14.1,13.2-18.4c1.8-1.2,8.2-5.9,8.2-5.9s-1.4-1.5-3-3.4c-4.3-4.9-6.8-7.6-9.9-13.3c-3-5.7-3.9-13.6-1.5-19.6
		c2.4-6,7-10.3,15.1-10.4c8.1-0.1,12.4,6.9,12.3,11.2c-0.1,5.8-2.8,8.3-8.5,9.4c2.6-2.6,3-4.2,2.9-6.7c-0.1-2.5-2-4.9-5.6-4.6
		c-3.1,0.3-5,2.7-5.4,5.8C305.6,169.4,307.8,174.8,313.5,180.5z M297,221.8c0.8,4.6,4.7,8.5,9.4,9.2c4.6,0.8,9.6-1.7,11.8-5.8
		c0.9-1.6,1.3-3.3,1.6-5.1c1.3-8.1-2.3-17.9-7.8-24c0,0-2.8,2-4.3,3.3c-3.8,3.5-6.9,7.8-9,12.6C297.3,215.1,296.4,218.5,297,221.8
		 M423.8,185.6c1.6-15.6,2.5-28,2.8-36.4c0.2-4.6-0.4-7.2-3.9-8.2c-3.5-0.8-7,5.3-8.2,8.7c-1.2,3.4-2.1,6.5-2.9,12.8
		c-0.8,6.3-1.1,18.8-5.3,30c-1.1,2.6-1.8,3.9-4.1,5.7c-2.3,1.7-6.9,1.8-9.2,1.6c-2.3-0.2-1.7-8.1-1.7-8.1s-3.2,5.4-7.3,8.5
		c-4,3.6-11.3,4-16.2,1.8c-4.9-2.3-7.1-7-6.8-12.4c-2.1,6.9-4.2,13.7-12,16.2c-6.1,1.8-14-4-16.6-9.8c-2.4-7.1-1-21-0.7-29.8
		c0.3-8.8,1.9-14.5,4.2-19.1c1.4-2.9,8.6-4.1,11.2-2.6c6.1,2.2,3.7,7.3,2.8,15.4c-1.1,9.3-3.5,20-2.4,31.2c0.6,5,5.7,2.7,8.1,0.6
		s4.8-8.2,5.1-11.4c1-10.7,2.7-20.3,2.2-31c-0.3-5.7,7-8.1,12.6-8.7c2-0.2,4.9,0.2,5,2.2c-0.8,13.8-3.3,28.4-2.8,41.8
		c0.1,3.2-0.1,7.5,2.9,8.7c2.5,1,7.2-1,8.5-3.4s2.4-5.1,2.8-8.1c1.3-14.8,2.7-24.1,3.3-37.7c-0.2-1.1-0.3-2.3,0.2-3.3
		c0.6-1.1,1.8-1.6,3-2.1c3.4-1.4,6.9-2.8,10.6-2.5c3.7,0.2,3.5,4.2,4.1,7.8c3.1-3.5,6.5-7.8,10.8-9.7c4.3-2,9.7-2.2,13.4,0.6
		c2.1,1.5,4.5,3.7,4.5,3.7c3.8-7.4,17.6-13.8,25.1-9.6c7.4,4.1,5.1,13.9,4.5,23c-0.6,9-3.1,19.5-2.6,30.6c0.2,4.3,2.2,11.8,4.6,12.4
		c2.4,0.6,5.2-4.3,5.2-4.3s-1.9,12.6-11.2,12c-4.3-0.3-9.7-4-11.6-8.5c-1.8-4.5-1.7-9.2-1.3-14.6c0.7-9.6,2.2-27.8,2.2-35.4
		c0-7.7-4.9-7-7.2-5.8c-2.3,1.1-5,5.7-5.7,8.9c-2.4,10.4-3.2,17.7-3.8,23.5c-0.6,5.8-1.5,16.4-3,20.5c-1,2.5-1.4,3.8-5.8,4.3
		C426.9,195.8,423,190,423.8,185.6z"/>
	<path d="M357,55.7c-1-4.2,2.8-8.7,7.1-8.5c1.5,0.1,2.9,0.7,4.2,1.4c2.7,1.5,5.1,3.7,6.7,6.3c1.6,2.4,2.3,6.1-0.1,7.7
		c-1.2,0.8-2.7,0.7-4.2,0.6c-2.8-0.2-5.6-0.5-8.2-1.6C359.9,60.5,357.6,58.4,357,55.7z M465.8,30.1c0.6-6.7,0.8-18.1-1.3-19.8
		s-7.5,0.6-10.8,2.1c-3.4,1.6-5.4,4.5-5.6,8.2c-1.5,24.8-4.3,42-5.6,66.5c-0.2,3.7-0.5,7.8-2.4,12.4c-2.8,5.4-10.2,14-10.9,5.5
		c-0.9-18.7,4.5-58,4.5-58l6.7-0.9c1.2-0.2,2.1-1.2,2.1-2.4v0c0.1-1.7-1.5-3-3.1-2.7l-4.7,0.7c1.7-8.1,4.4-11.7-2.5-16.3
		c-3.8-2.5-8.7-2.6-11.9-2.9c-1.3,0.7-1.7,2.6-1.6,4.1c-0.5,10.7-1.3,17.5-1.3,17.5c-2.8,0.9-10.3,1.9-10.3,1.9s2.1-9.8-1.8-14.5
		c-3.9-4.7-5.8-4.2-11.9-4.2c-0.6,0-1.2,0-1.7,0.4c-0.6,0.5-0.7,1.4-0.6,2.2c0.1,8-1.3,18.7-1.3,18.7l-8,1.5
		c-1.7,0.3-2.9,1.9-2.7,3.6v0c0.2,1.8,1.8,3,3.6,2.8l6.9-1.5c-1.9,20.6-3.2,37.5-5.5,55.1c-0.2,4.7-0.2,9.8,5.5,12.9
		c3.2,1.7,4.7,1.9,8.2,0.9c6.5-2,10.3-6.7,14.5-11.6c0.3,4.3,1.4,10,7.7,9.8c14.4-0.3,21.9-12.8,21.9-12.8s1.5,9.5,9.3,8.4
		c5.9-0.2,14.7-5.8,18.2-11.3c4.9,8.2,17.4,9.6,26.1,3.8c7.9-5.3,16.1-15.9,16.8-20.6c0.5-3-4.1,4.6-5.4,5.8
		c-6.2,7.7-12,9.9-16.3,5.3c-4-4.2-3.1-16-3.1-16c4.7-3,11.5-8.6,15.1-13.2c3.6-4.6,5.7-11.2,2.7-16.2c-3.4-5.7-13.4-6.3-19.1-4.2
		c-5.7,2-8,4-11.5,10.9c-3.6,7.1-6,15.3-6.6,24.8c-0.3,8.3,1,12.2-3.5,18.5c-3.2,4.5-5.6-4.7-4.5-19C461.4,67.7,464,48.9,465.8,30.1
		 M407.6,111.2c-1,0.8-2.2,1.4-3.4,1.1c-2.6-0.6-3.7-4.1-3.4-6.7c0.9-8.4,3.1-41,4.1-49.5c0.1-0.6,1.4-4.2,1.4-4.2l10.8-2.1
		c0,0-0.4,3.7-0.5,4.3c-0.8,7.5-3.4,41.1-4.2,48.6c-0.1,1.4-0.3,2.8-0.7,4.1C410.9,108.5,409,110.1,407.6,111.2 M487.4,81.7
		c-0.2-2.2,2.1-21.2,6.7-24.9c5.9-4.7,9.1,0.3,9.1,5.2C503.2,67.3,493.7,78.9,487.4,81.7z M358.1,67.7c-0.8,0.5-1,1.6-1.1,2.5
		c-1,10.1-2.3,20.3-3.3,30.4c-0.6,5.9-3.7,15.7-3.7,15.7s-2.5,5.4-8.3,6.7c-5.8,1.3-19.6,1.7-26.1,4c5.1-4.2,10.2-14.7,11.6-42.4
		c0.4-33,6.4-57.6,13.9-57.1c4.1,0.3,1.2,10.3,1.2,10.3s10-10.6,0.1-16.9c-5.9-3.8-13-1.4-18.9,2.6c-5.8,4-6.9,6.6-8.7,13.4
		c-1.8,6.8-2.4,13.1-3.1,24s-2.5,34-3.1,44.5s-3.7,15.6-10.9,25.2c-1.4,1.8,0.1,4.6,2.2,5.5s4.5,0.4,6.7-0.1
		c18.2-8.1,36.1-3.9,44.8-12.1c0.4,2.6,3,5.5,4.8,5.9c3,0.7,7.3,0,12.1-1.2c7.6-1.6,18-10.5,18-22.6c0.2-3.2-3.4,14.4-15.5,15.6
		c-4.5,0.4,0.8-25.5,2.5-36.4c0.6-4,1.9-8.4-0.2-11.9c-2.9-4.7-7.8-5.5-13.4-5.8C359.2,67.4,358.6,67.4,358.1,67.7"/>
	<path d="M210.2,86.9c1.7,0.9-0.1,4.8,1.2,6.7c4.4-6,11.6-11.3,18.3-7.9c6.7,3.3,13.8,11.3,13.6,25.8c-0.1,7.5-1.6,15-5.3,21.5
		c-3.3,5.7-8,11-14.3,12.7c-6.3,1.8-14.2-1.3-15.9-7.6c-2.6,22.4-4.5,43-5.2,49.8c-0.1,1.5-1,2.8-2.3,3.6c-2.3,1.3-5.9,3.2-8.3,4.2
		c-1.9,0.7-3.9-0.6-3.9-2.6c0-1,0-1.9,0-2.5c2-36,5.7-65.7,7.4-95.4C196.2,88.8,204,86.5,210.2,86.9 M220.2,92.1
		c-2.7-1.9-6.8,3.3-8.3,5.8c-1.5,2.5-2.9,9-3.3,12.2c-0.6,5.8-0.6,13.4,0.2,19.1c0.3,2.2,0.8,4.5,2.1,6.3s3.7,3,5.9,2.3
		c2.4-0.8,4.4-3.5,5.1-6c2.2-7.8,2.8-15.4,3.1-23.3C225.3,101.2,223.4,94.4,220.2,92.1z"/>
	<path d="M253.4,212.3c0,7.7-0.4,13.5-1.2,24.7c-0.8,11.2-1.1,19.7-3,31.1c-2.4,9.2-12.2,18.8-15.1,15.2c-1.7-2.2-1.5-6.2-1.2-9.5
		c2.7-34.7,4.5-63.3,7.2-98c0.5-6.5-0.2-16.7,5.9-19.2c3-1.2,10.9-3.5,10.9-0.3c0,1,0,1.4-0.3,4.4c1.9-6.6,10.7-8.5,15.5-7
		c9.3,2.9,14.8,9.8,17.2,16.3c2.4,6.4,2.2,13.6,1,20.4c-1.6,8.5-4.4,14.8-11.1,20.1c-6.8,5.4-18,8.8-24.5,3 M255.6,208.6
		c2.4,2.9,7,2.2,10-0.1c3-2.3,3.8-6.4,4.7-10.1c1.2-8.5,1.7-14.8,1.4-22.8c-0.2-7-2.2-13.7-5.3-14.5c-1.7-0.4-3.6,0.1-5.1,1
		c-5.5,3.3-5.6,19-6.1,25.4c-0.3,3.6-0.8,8.3-0.7,12C254.5,201.8,254.1,206.7,255.6,208.6z"/>
</g>
<g>
	<linearGradient id="SVGID_1_" gradientUnits="userSpaceOnUse" x1="105.5354" y1="32.9761" x2="105.5354" y2="215.0222">
		<stop  offset="0" style="stop-color:#FFFFFF"/>
		<stop  offset="1" style="stop-color:#B7D1D8"/>
	</linearGradient>
	<path class="st1" d="M50.5,128.4c-1.5,13.5-8.2,33.5-13.4,39.9c-3,3.7-7.8,6.4-12.1,6.9c-4.8,0.5-9-0.1-12.3-3.7
		c-3.6-4-3.7-12.2,0-23.2c3.4-10.1,17.4-28.8,22.1-33.5c2.1-1.9,2-4.9,2.8-12c1.7-15.3,5.7-43.5,2.7-58.5c-5.8,2-4.3,2.6-6.4,3.4
		c-3,1.1-5.2-0.3-2.4-2.9c2.8-2.6,12.3-5.6,18.8-11.3c1.2-1.1,3.3-0.6,4.5,0.6c1.1,1.2,1.6,2.9,1.9,4.5c3.3,14.9-0.8,46.1-2,61.3
		c3.4-1.9,13.3-7.2,14.8-9.1c0,0,1-7.2,1.4-10.7c0.6-5.7,1.6-11.4,2.9-17c1.8-7.4,3.5-15.2,10.2-21.1c15.4-13.7,25.8-2,27.6,8.5
		c1.4,8.3-0.8,15.4-4.5,20.7c-4.2,5.9-21.7,17.9-21.7,17.9s-0.2,0.8-0.6,3.1c-2.9,15.3-4.3,31.2-1.4,46.8c0.5,2.5,2.3,12.3,6.4,11.8
		c2.1-1.4,5.6-3.3,5.3-5.8c-0.3-2.5-1.5-4.8-2.4-7.1c-3.8-9.7-2.3-27.7,4.1-35.9c9.9-12.1,21.7-17.9,30.6-10.4
		c2,1.1,2.5-1.9,4.3-3.4c1.8-1.5,3.5-1.3,5.7-1.9c3.4-0.9,3.7-0.9,4.9,1.3c2.2,3.8-0.4,30.6-1,36.8c-0.6,6.5-1.5,14.3,2.1,14.7
		c2.5,0.3,7.2-12,8.3-17.9c0.3-13.4,1.7-31.3,3.4-35.3c1.2-2.8,6.4-3.4,12-2.6s2.1,3.2,1.4,6.6c4.7-6.5,14.5-11.1,21.6-7.4
		c6.7,3.6,11.7,9.4,11.1,22.8c-1.1,23-9.4,35.4-18.9,37.2c-5.4,1-14.7-1.4-16.5-9.3c-0.1,21.3-1.7,41-4.4,63.7
		c-0.4,3.6-0.9,5.5-2.1,8.8c-1.2,3.3-2.4,8.6-5.9,9.1c-3.5,0.5-7.3-2.4-7-5.9c2-24.9,3.9-49.9,5.4-76.7c-1.3,6.9-3.5,14.4-14,15.6
		c-5.9-0.3-11.4-2.6-13.7-8c-5.8,12.8-17.6,13.5-26.1,7.6c-1.6,4.7-6.4,8-14.3,8.9s-12.6-5.4-15.8-12c-3.2-6.7-1.8-17.6-1.1-25
		c0.7-7.5,1.4-15,2.1-22.5c-12,7-14.3,8.1-15.6,14.3C52.4,117.2,51.5,122.7,50.5,128.4 M177.5,89c-2.6-0.4-6.9,5.4-8.3,7.6
		c-3.1,8.3-3,14.7-3.6,26.5c0.2,5.8,3.6,10.6,8.9,10.7s6.4-6.6,6.7-7.7c2.4-8.6,4.6-20.6,2.2-29.2C182.6,94,180.6,89.5,177.5,89z
		 M123.2,128.7c0.2-4,1.8-19.7,1.8-29c-1-4.2-6.2-5.6-9-4.7c-4.7,1.8-7,9.8-7.9,12c-2.1,6.2-1.7,23.6,0.1,29.8
		c1.1,3.8,3.1,6.3,7,6.1C119.1,142.7,122.6,140,123.2,128.7z M18,167.8c3.4,0,7.1-5.8,8.2-8.5c3.7-8.9,7.2-28.5,8.6-38
		c0.1-0.6-11.4,13.7-15.1,20.5c-3.6,6.8-7.3,17.8-5.8,23.1C14.5,166.7,14.7,167.7,18,167.8z M86.5,83.2c5.1-3.1,17-10.3,19.7-19.6
		c3.8-13-1.7-25.7-8.9-16.7C91.4,54.3,86.5,83.2,86.5,83.2z"/>
	<linearGradient id="SVGID_2_" gradientUnits="userSpaceOnUse" x1="276.8802" y1="59.345" x2="276.8802" y2="147.0588">
		<stop  offset="0" style="stop-color:#FFFFFF"/>
		<stop  offset="1" style="stop-color:#B7D1D8"/>
	</linearGradient>
	<path class="st2" d="M248.5,69c0,0,4.7-9.6,12.7-9.6c14.5,0,13.2,12.3,12.9,18.5c-0.6,10.9-2.2,25.5-1.1,35.7c0.1,1,1,2.8,1.6,3.6
		c2,3.1,7.5,0.8,9.4-2.4c2.3-4,1.3-4.4,2.4-15.3c1.1-10.8,1-15,1.7-23c0.1-3.1,3.1-5.9,5.8-7.4c2.7-1.6,9.7-3.2,10.8-2.2
		c1.2,1,0.5,8,0.5,9.5c-2.8,20.7-5.6,58.4-6.3,69.6c-0.1,1.2-1.5,1.6-2.3,0.8c-3.1-3.2-6.9-5.2-11-5.9c-1.1-0.2-1.9-1.2-1.8-2.4
		c0.3-4.3,0.7-10.3,1-14.7c-1.5,5.1-7.4,8.2-10.5,8.2c-5.7-0.1-9.7,0.5-14.2-7.5c-4.5-7.9-1.2-28.2,0.3-44.2
		C261.6,64.9,253.4,66.8,248.5,69z"/>
	<linearGradient id="SVGID_3_" gradientUnits="userSpaceOnUse" x1="244.0257" y1="187.8569" x2="244.0257" y2="305.0359">
		<stop  offset="0" style="stop-color:#FFFFFF"/>
		<stop  offset="1" style="stop-color:#B7D1D8"/>
	</linearGradient>
	<path class="st3" d="M278.9,215.5c0.1-1.1,0.2-2.2,0.3-3c0.1-0.7,0.6-1.3,1.3-1.5c2.5-0.7,8.4-3.5,11.3-6.1c1.2-1,2.9-0.2,2.9,1.4
		c-1,20.5-3.3,29.9-4.8,45.4c-3.7,37.2-31.6,53.4-49.6,53.4c-16.1,0-29.3-4.4-37.2-14.2c-10.4-12.5-10.4-24.3-9-45.7
		c1.5-21,3.1-43.8,3.6-50c0.1-1,0.7-1.9,1.6-2.4l9.8-4.6c1.7-0.9,3.7,0.4,3.5,2.3c-0.7,8.8-2,28.5-3.2,45.5
		c-0.8,11.1-1.3,19.4-0.8,28.1c0.5,8.7,3.8,14.1,9.7,19.3c9.2,5.6,20.8,7,30.1,3.7C261.6,280.3,275.7,274.1,278.9,215.5z"/>
	<linearGradient id="SVGID_4_" gradientUnits="userSpaceOnUse" x1="230.7576" y1="147.6594" x2="230.7576" y2="276.1368">
		<stop  offset="0" style="stop-color:#FFFFFF"/>
		<stop  offset="1" style="stop-color:#B7D1D8"/>
	</linearGradient>
	<path class="st4" d="M233.3,275.5c-0.9,1.1-2.1,0.6-3.5,0.2c-6.5-1.6-9.1-5.5-10.9-11.9c-1.8-6.4-0.3-9.4,0.1-16.1
		c2.4-34.6,4.8-51,7.2-85.5c0.2-2.4,0.4-4.3,0.7-7.1c0.2-2.5,2-4.7,4.5-5.3l7.8-2c2.3-0.6,4.5,1.3,4.4,3.6c-0.3,3.9-0.6,7.3-0.7,8.8
		c-3.5,48.3-5.3,64.4-8.8,112.7C233.9,273.8,233.9,274.8,233.3,275.5z"/>
	<linearGradient id="SVGID_5_" gradientUnits="userSpaceOnUse" x1="393.2937" y1="117.8947" x2="393.2937" y2="237.9322">
		<stop  offset="0" style="stop-color:#FFFFFF"/>
		<stop  offset="1" style="stop-color:#B7D1D8"/>
	</linearGradient>
	<path class="st5" d="M323.5,170.8c1.6,1.6,3.7,3.7,6.4,6.1c0,0,11-6.2,13.6-18.1c0.7-0.1,1.3,0.6,1.7,1.2
		c-3.7,13.5-13,19.3-13,19.3c2.8,2.7,8.1,8,9.7,10.4c3.3,5.1,5.2,8.3,6.7,14.3c2.5,10-0.7,22.5-8.7,28.9c-8,6.4-20.9,6.7-29.7,1.4
		s-13.7-16.6-11.2-26.6c1.8-7.2,7.1-14.1,13.2-18.4c1.8-1.2,8.2-5.9,8.2-5.9s-1.4-1.5-3-3.4c-4.3-4.9-6.8-7.6-9.9-13.3
		c-3-5.7-3.9-13.6-1.5-19.6c2.4-6,7-10.3,15.1-10.4c8.1-0.1,12.4,6.9,12.3,11.2c-0.1,5.8-2.8,8.3-8.5,9.4c2.6-2.6,3-4.2,2.9-6.7
		c-0.1-2.5-2-4.9-5.6-4.6c-3.1,0.3-5,2.7-5.4,5.8C315.6,159.7,317.8,165.1,323.5,170.8z M307,212.1c0.8,4.6,4.7,8.5,9.4,9.2
		c4.6,0.8,9.6-1.7,11.8-5.8c0.9-1.6,1.3-3.3,1.6-5.1c1.3-8.1-2.3-17.9-7.8-24c0,0-2.8,2-4.3,3.3c-3.8,3.5-6.9,7.8-9,12.6
		C307.3,205.4,306.4,208.8,307,212.1 M433.8,176c1.6-15.6,2.5-28,2.8-36.4c0.2-4.6-0.4-7.2-3.9-8.2c-3.5-0.8-7,5.3-8.2,8.7
		c-1.2,3.4-2.1,6.5-2.9,12.8c-0.8,6.3-1.1,18.8-5.3,30c-1.1,2.6-1.8,3.9-4.1,5.7c-2.3,1.7-6.9,1.8-9.2,1.6c-2.3-0.2-1.7-8.1-1.7-8.1
		s-3.2,5.4-7.3,8.5c-4,3.6-11.3,4-16.2,1.8c-4.9-2.3-7.1-7-6.8-12.4c-2.1,6.9-4.2,13.7-12,16.2c-6.1,1.8-14-4-16.6-9.8
		c-2.4-7.1-1-21-0.7-29.8s1.9-14.5,4.2-19.1c1.4-2.9,8.6-4.1,11.2-2.6c6.1,2.2,3.7,7.3,2.8,15.4c-1.1,9.3-3.5,20-2.4,31.2
		c0.6,5,5.7,2.7,8.1,0.6s4.8-8.2,5.1-11.4c1-10.7,2.7-20.3,2.2-31c-0.3-5.7,7-8.1,12.6-8.7c2-0.2,4.9,0.2,5,2.2
		c-0.8,13.8-3.3,28.4-2.8,41.8c0.1,3.2-0.1,7.5,2.9,8.7c2.5,1,7.2-1,8.5-3.4s2.4-5.1,2.8-8.1c1.3-14.8,2.7-24.1,3.3-37.7
		c-0.2-1.1-0.3-2.3,0.2-3.3c0.6-1.1,1.8-1.6,3-2.1c3.4-1.4,6.9-2.8,10.6-2.5c3.7,0.2,3.5,4.2,4.1,7.8c3.1-3.5,6.5-7.8,10.8-9.7
		s9.7-2.2,13.4,0.6c2.1,1.5,4.5,3.7,4.5,3.7c3.8-7.4,17.6-13.8,25.1-9.6c7.4,4.1,5.1,13.9,4.5,23c-0.6,9-3.1,19.5-2.6,30.6
		c0.2,4.3,2.2,11.8,4.6,12.4c2.4,0.6,5.2-4.3,5.2-4.3s-1.9,12.6-11.2,12c-4.3-0.3-9.7-4-11.6-8.5c-1.8-4.5-1.7-9.2-1.3-14.6
		c0.7-9.6,2.2-27.8,2.2-35.4s-4.9-7-7.2-5.8c-2.3,1.1-5,5.7-5.7,8.9c-2.4,10.4-3.2,17.7-3.8,23.5c-0.6,5.8-1.5,16.4-3,20.5
		c-1,2.5-1.4,3.8-5.8,4.3C436.9,186.1,433,180.3,433.8,176z"/>
	<linearGradient id="SVGID_6_" gradientUnits="userSpaceOnUse" x1="414.6475" y1="2.591150e-009" x2="414.6475" y2="126.8773">
		<stop  offset="0" style="stop-color:#FFFFFF"/>
		<stop  offset="1" style="stop-color:#B7D1D8"/>
	</linearGradient>
	<path class="st6" d="M367,46c-1-4.2,2.8-8.7,7.1-8.5c1.5,0.1,2.9,0.7,4.2,1.4c2.7,1.5,5.1,3.7,6.7,6.3c1.6,2.4,2.3,6.1-0.1,7.7
		c-1.2,0.8-2.7,0.7-4.2,0.6c-2.8-0.2-5.6-0.5-8.2-1.6C369.9,50.8,367.6,48.7,367,46z M475.8,20.4c0.6-6.7,0.8-18.1-1.3-19.8
		s-7.5,0.6-10.8,2.1c-3.4,1.6-5.4,4.5-5.6,8.2c-1.5,24.8-4.3,42-5.6,66.5c-0.2,3.7-0.5,7.8-2.4,12.4c-2.8,5.4-10.2,14-10.9,5.5
		c-0.9-18.7,4.5-58,4.5-58l6.7-0.9c1.2-0.2,2.1-1.2,2.1-2.4v0c0.1-1.7-1.5-3-3.1-2.7l-4.7,0.7c1.7-8.1,4.4-11.7-2.5-16.3
		c-3.8-2.5-8.7-2.6-11.9-2.9c-1.3,0.7-1.7,2.6-1.6,4.1c-0.5,10.7-1.3,17.5-1.3,17.5c-2.8,0.9-10.3,1.9-10.3,1.9s2.1-9.8-1.8-14.5
		c-3.9-4.7-5.8-4.2-11.9-4.2c-0.6,0-1.2,0-1.7,0.4c-0.6,0.5-0.7,1.4-0.6,2.2c0.1,8-1.3,18.7-1.3,18.7l-8,1.5
		c-1.7,0.3-2.9,1.9-2.7,3.6v0c0.2,1.8,1.8,3,3.6,2.8l6.9-1.5c-1.9,20.6-3.2,37.5-5.5,55.1c-0.2,4.7-0.2,9.8,5.5,12.9
		c3.2,1.7,4.7,1.9,8.2,0.9c6.5-2,10.3-6.7,14.5-11.6c0.3,4.3,1.4,10,7.7,9.8c14.4-0.3,21.9-12.8,21.9-12.8s1.5,9.5,9.3,8.4
		c5.9-0.2,14.7-5.8,18.2-11.3c4.9,8.2,17.4,9.6,26.1,3.8c7.9-5.3,16.1-15.9,16.8-20.6c0.5-3-4.1,4.6-5.4,5.8
		c-6.2,7.7-12,9.9-16.3,5.3c-4-4.2-3.1-16-3.1-16c4.7-3,11.5-8.6,15.1-13.2c3.6-4.6,5.7-11.2,2.7-16.2c-3.4-5.7-13.4-6.3-19.1-4.2
		s-8,4-11.5,10.9c-3.6,7.1-6,15.3-6.6,24.8c-0.3,8.3,1,12.2-3.5,18.5c-3.2,4.5-5.6-4.7-4.5-19C471.4,58,474,39.2,475.8,20.4
		 M417.6,101.5c-1,0.8-2.2,1.4-3.4,1.1c-2.6-0.6-3.7-4.1-3.4-6.7c0.9-8.4,3.1-41,4.1-49.5c0.1-0.6,1.4-4.2,1.4-4.2l10.8-2.1
		c0,0-0.4,3.7-0.5,4.3c-0.8,7.5-3.4,41.1-4.2,48.6c-0.1,1.4-0.3,2.8-0.7,4.1C420.9,98.8,419,100.4,417.6,101.5 M497.4,72
		c-0.2-2.2,2.1-21.2,6.7-24.9c5.9-4.7,9.1,0.3,9.1,5.2C513.2,57.6,503.7,69.3,497.4,72z M368.1,58c-0.8,0.5-1,1.6-1.1,2.5
		c-1,10.1-2.3,20.3-3.3,30.4c-0.6,5.9-3.7,15.7-3.7,15.7s-2.5,5.4-8.3,6.7c-5.8,1.3-19.6,1.7-26.1,4c5.1-4.2,10.2-14.7,11.6-42.4
		c0.4-33,6.4-57.6,13.9-57.1c4.1,0.3,1.2,10.3,1.2,10.3s10-10.6,0.1-16.9c-5.9-3.8-13-1.4-18.9,2.6c-5.8,4-6.9,6.6-8.7,13.4
		c-1.8,6.8-2.4,13.1-3.1,24s-2.5,34-3.1,44.5s-3.7,15.6-10.9,25.2c-1.4,1.8,0.1,4.6,2.2,5.5c2.1,0.9,4.5,0.4,6.7-0.1
		c18.2-8.1,36.1-3.9,44.8-12.1c0.4,2.6,3,5.5,4.8,5.9c3,0.7,7.3,0,12.1-1.2c7.6-1.6,18-10.5,18-22.6c0.2-3.2-3.4,14.4-15.5,15.6
		c-4.5,0.4,0.8-25.5,2.5-36.4c0.6-4,1.9-8.4-0.2-11.9c-2.9-4.7-7.8-5.5-13.4-5.8C369.2,57.7,368.6,57.7,368.1,58"/>
	<linearGradient id="SVGID_7_" gradientUnits="userSpaceOnUse" x1="225.8398" y1="74.932" x2="225.8398" y2="186.0135">
		<stop  offset="0" style="stop-color:#FFFFFF"/>
		<stop  offset="1" style="stop-color:#B7D1D8"/>
	</linearGradient>
	<path class="st7" d="M220.2,77.2c1.7,0.9-0.1,4.8,1.2,6.7c4.4-6,11.6-11.3,18.3-7.9c6.7,3.3,13.8,11.3,13.6,25.8
		c-0.1,7.5-1.6,15-5.3,21.5c-3.3,5.7-8,11-14.3,12.7c-6.3,1.8-14.2-1.3-15.9-7.6c-2.6,22.4-4.5,43-5.2,49.8c-0.1,1.5-1,2.8-2.3,3.6
		c-2.3,1.3-5.9,3.2-8.3,4.2c-1.9,0.7-3.9-0.6-3.9-2.6c0-1,0-1.9,0-2.5c2-36,5.7-65.7,7.4-95.4C206.2,79.1,214,76.8,220.2,77.2
		 M230.2,82.4c-2.7-1.9-6.8,3.3-8.3,5.8c-1.5,2.5-2.9,9-3.3,12.2c-0.6,5.8-0.6,13.4,0.2,19.1c0.3,2.2,0.8,4.5,2.1,6.3s3.7,3,5.9,2.3
		c2.4-0.8,4.4-3.5,5.1-6c2.2-7.8,2.8-15.4,3.1-23.3C235.3,91.5,233.4,84.7,230.2,82.4z"/>
	<linearGradient id="SVGID_8_" gradientUnits="userSpaceOnUse" x1="271.9091" y1="143.4759" x2="271.9091" y2="274.3715">
		<stop  offset="0" style="stop-color:#FFFFFF"/>
		<stop  offset="1" style="stop-color:#B7D1D8"/>
	</linearGradient>
	<path class="st8" d="M263.4,202.6c0,7.7-0.4,13.5-1.2,24.7c-0.8,11.2-1.1,19.7-3,31.1c-2.4,9.2-12.2,18.8-15.1,15.2
		c-1.7-2.2-1.5-6.2-1.2-9.5c2.7-34.7,4.5-63.3,7.2-98c0.5-6.5-0.2-16.7,5.9-19.2c3-1.2,10.9-3.5,10.9-0.3c0,1,0,1.4-0.3,4.4
		c1.9-6.6,10.7-8.5,15.5-7c9.3,2.9,14.8,9.8,17.2,16.3c2.4,6.4,2.2,13.6,1,20.4c-1.6,8.5-4.4,14.8-11.1,20.1c-6.8,5.4-18,8.8-24.5,3
		 M265.6,198.9c2.4,2.9,7,2.2,10-0.1c3-2.3,3.8-6.4,4.7-10.1c1.2-8.5,1.7-14.8,1.4-22.8c-0.2-7-2.2-13.7-5.3-14.5
		c-1.7-0.4-3.6,0.1-5.1,1c-5.5,3.3-5.6,19-6.1,25.4c-0.3,3.6-0.8,8.3-0.7,12C264.5,192.1,264.1,197,265.6,198.9z"/>
</g>
</svg>
